<?xml version="1.0" standalone="no"?><!DOCTYPE svg PUBLIC "-//W3C//DTD SVG 1.1//EN" "http://www.w3.org/Graphics/SVG/1.1/DTD/svg11.dtd"><svg t="1714313380541" class="icon" viewBox="0 0 1024 1024" version="1.1" xmlns="http://www.w3.org/2000/svg" p-id="4179" xmlns:xlink="http://www.w3.org/1999/xlink" width="200" height="200"><path d="M564.565333 74.012444a143.303111 143.303111 0 0 1 159.516445 15.928889c8.305778 6.826667 15.928889 14.051556 22.414222 21.504 22.016 24.689778 34.019556 51.768889 36.636444 82.773334a53.816889 53.816889 0 0 1-14.620444 42.837333 54.727111 54.727111 0 0 1-43.690667 16.213333c-14.791111-0.796444-26.055111-8.590222-34.417777-23.779555-3.356444-6.087111-6.087111-12.401778-8.931556-18.773334a287.402667 287.402667 0 0 0-6.826667-14.734222c-10.808889-20.878222-22.755556-30.606222-39.822222-32.483555-10.183111-1.479111-17.635556 3.413333-24.689778 8.647111a40.789333 40.789333 0 0 1-3.072 1.991111 22.016 22.016 0 0 0-3.015111 2.104889c-9.898667 8.704-18.488889 19.342222-26.282666 32.654222a300.032 300.032 0 0 0-18.204445 38.627556 428.145778 428.145778 0 0 0-11.946667 33.905777 650.24 650.24 0 0 0-16.952888 69.916445c-2.275556 11.889778-4.380444 23.779556-6.371556 35.726222-0.967111 5.575111-0.170667 7.452444 0.341333 8.078222 0.398222 0.455111 1.934222 1.592889 7.509334 1.706667 16.384 0.170667 32.597333 0.170667 49.152 0.170667h28.103111c6.428444 0 12.515556 0.739556 17.976889 2.218666a51.768889 51.768889 0 0 1 35.726222 32.540445 52.337778 52.337778 0 0 1-1.080889 40.448l-3.185778 6.030222a48.924444 48.924444 0 0 1-26.624 21.162667c-10.24 3.413333-21.390222 4.039111-28.899555 4.266666-23.267556 0.512-46.535111 0.568889-69.802667 0.682667l-16.725333 0.056889c-2.275556 0-3.868444 0.455111-4.835556 1.308444-0.967111 0.910222-1.649778 2.673778-2.048 5.233778l-3.128889 22.016c-2.844444 20.878222-5.973333 42.382222-10.24 63.431111-10.183111 49.664-21.048889 102.570667-34.474666 155.363556a436.053333 436.053333 0 0 1-60.529778 136.192 251.562667 251.562667 0 0 1-43.235556 50.744889 160.824889 160.824889 0 0 1-58.709333 33.450666 135.338667 135.338667 0 0 1-79.018667 0.967111 174.364444 174.364444 0 0 1-25.315555-9.329777c-18.432-8.419556-35.271111-20.764444-54.897778-39.992889a148.48 148.48 0 0 0-5.347556-5.063111c-3.697778-3.470222-7.395556-6.883556-10.695111-10.695112-10.353778-11.889778-13.255111-28.387556-7.907555-45.283555 2.275556-7.281778 5.404444-13.425778 9.500444-18.773333 12.060444-15.985778 26.851556-23.495111 41.870222-21.902223 5.347556 0.568889 10.808889 2.275556 16.099556 5.12 9.557333 4.949333 18.488889 10.979556 25.144889 15.644445l8.021333 5.632c5.233778 3.697778 10.410667 7.395556 15.758222 10.979555 27.477333 18.204444 44.430222 16.554667 67.413334-7.054222 16.099556-16.611556 29.411556-37.603556 41.984-65.934222 3.640889-8.135111 6.997333-16.384 10.296889-24.632889 21.504-54.840889 32.654222-112.071111 39.992888-155.761778 3.185778-19.171556 5.973333-38.343111 8.817778-57.571555l5.290667-35.328c0.568889-3.527111 0.341333-6.087111-0.568889-7.224889-1.251556-1.479111-4.437333-1.763556-6.826667-1.763556-27.704889-0.056889-55.409778-0.284444-83.057777-0.682666-23.893333-0.341333-43.349333-13.653333-50.744889-34.816a60.074667 60.074667 0 0 1-3.015111-22.471112 47.047111 47.047111 0 0 1 4.664888-18.147555 52.963556 52.963556 0 0 1 26.737778-25.6c6.087111-2.673778 12.572444-4.266667 19.342222-4.721778 6.656-0.455111 13.482667-0.341333 20.195556-0.170667l5.916444 0.056889 15.132445-0.056889 56.604444-0.568888a35.953778 35.953778 0 0 0 6.940445-0.512c2.161778-0.455111 2.958222-0.967111 3.868444-3.584a40.049778 40.049778 0 0 0 1.763556-6.997334c2.104889-11.377778 4.096-22.698667 6.087111-34.019555a1219.697778 1219.697778 0 0 1 17.635555-87.210667c3.584-14.791111 7.509333-28.216889 11.946667-41.073778 4.551111-13.596444 9.784889-26.908444 15.530667-39.537778 12.572444-27.477333 27.306667-51.427556 45.169778-73.216 12.515556-15.303111 27.477333-27.704889 44.657777-36.864z m292.238223 510.691556c16.327111-20.650667 39.367111-24.234667 60.131555-9.671111 19.114667 13.482667 23.324444 39.139556 9.841778 59.676444-19.740444 29.980444-39.822222 59.676444-59.904 89.315556l-17.521778 26.055111c-9.898667 14.677333-9.898667 14.677333 0.056889 29.468444l0.227556 0.284445 15.473777 22.983111c20.081778 29.809778 40.163556 59.619556 59.960889 89.6 8.647111 13.084444 11.377778 27.420444 7.509334 40.277333a43.121778 43.121778 0 0 1-25.144889 27.079111 41.301333 41.301333 0 0 1-16.213334 3.413334 43.918222 43.918222 0 0 1-35.84-19.911111c-13.937778-20.081778-27.534222-40.391111-41.187555-60.586667l-20.48-30.321778a27.875556 27.875556 0 0 0-4.949334-5.859555c-1.706667-1.422222-1.877333-1.308444-3.299555-0.113778a28.046222 28.046222 0 0 0-4.721778 5.802667l-56.263111 83.626666c-10.183111 15.246222-18.944 22.641778-30.151111 25.6a47.786667 47.786667 0 0 1-11.946667 1.536 41.699556 41.699556 0 0 1-36.920889-22.186666c-8.931556-15.189333-7.907556-31.004444 2.901334-47.104l23.552-35.043556c18.375111-27.363556 36.693333-54.784 55.523555-81.92 6.257778-8.988444 6.257778-14.791111 0-23.665778-26.339556-37.774222-51.768889-75.946667-77.767111-115.086222-9.386667-14.108444-12.060444-29.184-7.395555-42.666667 4.323556-12.629333 14.791111-22.300444 29.411555-27.136 17.635556-5.802667 36.864 2.446222 49.493333 20.935111 11.377778 16.725333 22.584889 33.564444 33.848889 50.346667l18.830223 28.16c2.56 3.811556 5.12 7.68 7.793777 11.377778 2.901333 4.096 4.835556 5.12 5.575111 5.12 0.682667 0 2.503111-1.024 5.12-4.835556 9.102222-13.198222 17.976889-26.567111 26.908445-39.936l21.048889-31.288889c5.233778-7.793778 10.638222-15.815111 16.497778-23.324444z" fill="#8590A6" p-id="4180"></path></svg>